<svg width="1071" height="216" viewBox="0 0 1071 216" fill="none" xmlns="http://www.w3.org/2000/svg">
<path d="M344.617 5V212.301H302.374V5H344.617Z" fill="white"/>
<path d="M778.098 64.6529L779.868 95.829H755.425V99.0531H755.305V166.549C755.305 170.598 755.8 173.702 756.789 175.861C757.779 178.021 759.399 179.55 761.648 180.45C763.897 181.26 766.777 181.664 770.286 181.664C772.805 181.664 774.964 181.575 776.764 181.395C778.563 181.215 780.228 180.99 781.757 180.72V211.221C778.158 212.391 774.334 213.29 770.286 213.92C766.237 214.64 761.828 215 757.059 215C747.972 215 740.099 213.515 733.441 210.546C726.873 207.577 721.834 202.898 718.325 196.51C714.816 190.032 713.062 181.619 713.062 171.272V95.829H693.223L691.453 64.6529C697.133 64.6529 704.65 64.7414 713.062 64.8424V30.1028H755.305V64.5029H755.425V65.1175C763.734 65.0753 771.545 64.941 778.098 64.6529Z" fill="white"/>
<path d="M506.976 108.515L484.572 66.2725H440.035L479.714 137.532L438.011 212.301H482.683L507.111 167.224L531.674 212.301H576.211L534.508 137.532L574.322 66.2725H530.054L506.976 108.515Z" fill="white"/>
<path fill-rule="evenodd" clip-rule="evenodd" d="M219.267 214.01C207.391 214.01 196.774 212.166 187.417 208.477C178.059 204.698 170.142 199.524 163.663 192.956C157.275 186.388 152.372 178.83 148.953 170.283C145.624 161.735 143.959 152.693 143.959 143.155V138.027C143.959 127.32 145.444 117.423 148.413 108.335C151.382 99.1581 155.791 91.1503 161.639 84.3123C167.487 77.4742 174.82 72.1658 183.638 68.3868C192.455 64.5179 202.712 62.5835 214.409 62.5835C224.756 62.5835 234.023 64.248 242.211 67.5771C250.399 70.9061 257.327 75.6748 262.995 81.883C268.753 88.0912 273.117 95.6041 276.086 104.422C279.145 113.239 280.675 123.136 280.675 134.113V152.603H190.402C190.741 154.429 191.186 156.184 191.735 157.866C193.265 162.275 195.424 166.054 198.213 169.203C201.093 172.262 204.512 174.646 208.471 176.356C212.519 178.066 217.108 178.92 222.237 178.92C228.445 178.92 234.563 177.751 240.591 175.411C246.62 173.072 251.793 169.203 256.112 163.805L276.761 188.368C273.792 192.596 269.563 196.69 264.075 200.649C258.676 204.608 252.198 207.847 244.64 210.366C237.082 212.796 228.625 214.01 219.267 214.01ZM190.448 124.126H236.273V120.617C236.363 115.758 235.508 111.619 233.708 108.2C231.999 104.781 229.48 102.172 226.15 100.373C222.821 98.5732 218.773 97.6735 214.004 97.6735C209.055 97.6735 204.962 98.7532 201.722 100.913C198.573 103.072 196.099 106.041 194.3 109.82C192.59 113.509 191.375 117.783 190.656 122.641C190.583 123.133 190.514 123.628 190.448 124.126Z" fill="white"/>
<path d="M644.696 114.574C642.991 116.215 641.597 118.167 640.512 120.429V213.23H595.03V67.2022H637.543L639.082 85.9508C639.627 84.9347 640.194 83.9486 640.782 82.9926C644.381 77.0543 648.745 72.5106 653.873 69.3615C659.002 66.1225 664.76 64.5029 671.149 64.5029C673.398 64.5029 675.602 64.6379 677.762 64.9078C680.011 65.1777 681.99 65.5826 683.7 66.1225L682.89 108.365C681.091 108.185 678.661 107.961 675.602 107.691C672.543 107.421 669.979 107.286 667.909 107.286C662.601 107.286 658.012 107.916 654.143 109.175C650.364 110.345 647.215 112.144 644.696 114.574Z" fill="white"/>
<path d="M419.385 66.2725V212.301H377.143V66.2725H419.385Z" fill="white"/>
<path d="M848.398 97.1336V64.5029H788.895V97.1336H848.398Z" fill="white"/>
<path d="M435.716 16.5166V49.1473H376.213V16.5166H435.716Z" fill="white"/>
<path d="M47.3715 53.0912V98.3032H123.76V134.743H47.3715V213.02H0V16.5166H131.452V53.0912H47.3715Z" fill="white"/>
<path d="M925.243 161.911L935.058 155.007L928.107 145.124L918.291 152.027L925.243 161.911Z" fill="white"/>
<path d="M922.379 178.698L932.195 171.794L925.243 161.911L915.428 168.815L922.379 178.698Z" fill="white"/>
<path d="M897.437 122.377L907.252 115.473L914.204 125.357L904.388 132.26L897.437 122.377Z" fill="white"/>
<path d="M880.67 119.397L890.485 112.494L897.437 122.377L887.622 129.281L880.67 119.397Z" fill="white"/>
<path d="M870.855 126.301L880.67 119.397L866.767 99.6302L856.952 106.534L870.855 126.301Z" fill="white"/>
<path d="M859.815 89.7467L866.767 99.6302L906.028 72.0158L899.077 62.1323L859.815 89.7467Z" fill="white"/>
<path d="M906.028 72.0158L912.98 81.8993L932.61 68.0921L925.659 58.2086L906.028 72.0158Z" fill="white"/>
<path d="M932.61 68.0921L939.562 77.9756L959.193 64.1684L952.241 54.2849L932.61 68.0921Z" fill="white"/>
<path d="M959.193 64.1684L966.144 74.0519L985.775 60.2447L978.823 50.3612L959.193 64.1684Z" fill="white"/>
<path d="M985.775 60.2447L992.726 70.1282L1012.36 56.321L1005.41 46.4375L985.775 60.2447Z" fill="white"/>
<path d="M1026.26 76.0879L1036.08 69.1844L1022.17 49.4174L1012.36 56.321L1026.26 76.0879Z" fill="white"/>
<path d="M1006.63 89.8951L1013.58 99.7786L1033.21 85.9714L1026.26 76.0879L1006.63 89.8951Z" fill="white"/>
<path d="M993.95 113.586L1000.9 123.469L1020.53 109.662L1013.58 99.7786L993.95 113.586Z" fill="white"/>
<path d="M981.271 137.276L988.223 147.16L1007.85 133.353L1000.9 123.469L981.271 137.276Z" fill="white"/>
<path d="M968.592 160.967L975.544 170.851L995.174 157.043L988.223 147.16L968.592 160.967Z" fill="white"/>
<path d="M936.282 198.465L943.234 208.348L982.495 180.734L975.544 170.851L936.282 198.465Z" fill="white"/>
<path d="M922.379 178.698L912.564 185.602L926.467 205.369L936.282 198.465L922.379 178.698Z" fill="white"/>
<path d="M928.107 145.124L937.922 138.22L924.019 118.453L914.204 125.357L928.107 145.124Z" fill="white"/>
<path d="M937.922 138.22L928.107 145.124L935.058 155.007L925.243 161.911L932.195 171.794L922.379 178.698L936.282 198.465L975.544 170.851L968.592 160.967L988.223 147.16L981.271 137.276L1000.9 123.469L993.95 113.586L1013.58 99.7786L1006.63 89.8951L1026.26 76.0879L1012.36 56.321L992.726 70.1282L985.775 60.2447L966.144 74.0519L959.193 64.1684L939.562 77.9756L932.61 68.0921L912.98 81.8993L906.028 72.0158L866.767 99.6302L880.67 119.397L890.485 112.494L897.437 122.377L907.252 115.473L914.204 125.357L924.019 118.453L937.922 138.22Z" fill="white"/>
</svg>
