<svg width="120" height="31" viewBox="0 0 120 31" fill="none" xmlns="http://www.w3.org/2000/svg">
<path d="M49.2786 0.529785V29.6309H43.3485V0.529785H49.2786Z" fill="#EDE7F3"/>
<path d="M110.131 8.90393L110.38 13.2805H106.948V13.7331H106.931V23.2082C106.931 23.7766 107.001 24.2123 107.14 24.5155C107.279 24.8186 107.506 25.0333 107.822 25.1597C108.138 25.2733 108.542 25.3302 109.035 25.3302C109.388 25.3302 109.691 25.3175 109.944 25.2923C110.197 25.267 110.43 25.2354 110.645 25.1975V29.4794C110.14 29.6435 109.603 29.7699 109.035 29.8583C108.466 29.9593 107.847 30.0098 107.178 30.0098C105.902 30.0098 104.797 29.8014 103.862 29.3846C102.94 28.9678 102.233 28.311 101.74 27.4142C101.248 26.5048 101.001 25.3239 101.001 23.8713V13.2805H98.2163L97.9679 8.90393C98.7653 8.90393 99.8205 8.91636 101.001 8.93054V4.05375H106.931V8.88288H106.948V8.96915C108.115 8.96323 109.211 8.94437 110.131 8.90393Z" fill="#EDE7F3"/>
<path d="M72.0708 15.0614L68.9258 9.13129H62.6735L68.2437 19.1348L62.3894 29.6309H68.6605L72.0897 23.3029L75.5379 29.6309H81.7901L75.9358 19.1348L81.5249 9.13129H75.3106L72.0708 15.0614Z" fill="#EDE7F3"/>
<path fill-rule="evenodd" clip-rule="evenodd" d="M31.6819 29.8709C30.0147 29.8709 28.5242 29.612 27.2106 29.0941C25.8971 28.5636 24.7856 27.8374 23.8761 26.9153C22.9794 25.9933 22.291 24.9323 21.811 23.7324C21.3437 22.5325 21.11 21.2631 21.11 19.9242V19.2043C21.11 17.7012 21.3184 16.3118 21.7352 15.0361C22.152 13.7478 22.771 12.6237 23.5919 11.6637C24.4129 10.7038 25.4423 9.9586 26.6802 9.42811C27.918 8.88499 29.3579 8.61343 30.9999 8.61343C32.4524 8.61343 33.7533 8.8471 34.9027 9.31443C36.0521 9.78177 37.0247 10.4512 37.8204 11.3227C38.6288 12.1942 39.2414 13.2489 39.6582 14.4867C40.0876 15.7245 40.3024 17.1139 40.3024 18.6548V21.2504H27.6297C27.6774 21.5069 27.7398 21.7532 27.8169 21.9893C28.0316 22.6082 28.3348 23.1387 28.7263 23.5808C29.1305 24.0103 29.6105 24.345 30.1662 24.585C30.7346 24.8249 31.3788 24.9449 32.0987 24.9449C32.9702 24.9449 33.8291 24.7807 34.6754 24.4523C35.5216 24.1239 36.2479 23.5808 36.8542 22.823L39.7529 26.2712C39.3361 26.8648 38.7425 27.4395 37.972 27.9952C37.2142 28.551 36.3048 29.0057 35.2438 29.3594C34.1828 29.7004 32.9955 29.8709 31.6819 29.8709ZM27.6362 17.2528H34.0691V16.7602C34.0817 16.0782 33.9618 15.4972 33.7091 15.0172C33.4692 14.5372 33.1155 14.1709 32.6482 13.9183C32.1808 13.6657 31.6124 13.5394 30.943 13.5394C30.2483 13.5394 29.6736 13.691 29.2189 13.9941C28.7769 14.2972 28.4295 14.7141 28.1769 15.2445C27.9369 15.7624 27.7664 16.3624 27.6653 17.0444C27.6551 17.1135 27.6454 17.183 27.6362 17.2528Z" fill="#EDE7F3"/>
<path d="M91.4041 15.9119C91.1648 16.1423 90.969 16.4163 90.8168 16.7338V29.7614H84.432V9.2618H90.4L90.616 11.8938C90.6925 11.7511 90.7721 11.6127 90.8547 11.4785C91.3599 10.6449 91.9725 10.007 92.6924 9.56494C93.4124 9.11023 94.2207 8.88288 95.1175 8.88288C95.4333 8.88288 95.7428 8.90183 96.0459 8.93972C96.3617 8.97761 96.6395 9.03445 96.8795 9.11023L96.7658 15.0403C96.5132 15.0151 96.1722 14.9835 95.7427 14.9456C95.3133 14.9077 94.9533 14.8888 94.6628 14.8888C93.9176 14.8888 93.2734 14.9772 92.7303 15.154C92.1998 15.3182 91.7578 15.5708 91.4041 15.9119Z" fill="#EDE7F3"/>
<path d="M59.7747 9.13129V29.6309H53.8446V9.13129H59.7747Z" fill="#EDE7F3"/>
<path d="M120 13.4636V8.88288H111.647V13.4636H120Z" fill="#EDE7F3"/>
<path d="M62.0672 2.1465V6.72724H53.7141V2.1465H62.0672Z" fill="#EDE7F3"/>
<path d="M7.55094 7.28088V13.6278H18.2744V18.7432H7.55094V29.732H0.900879V2.1465H19.3543V7.28088H7.55094Z" fill="#EDE7F3"/>
</svg>
