<svg width="246" height="50" viewBox="0 0 246 50" fill="none" xmlns="http://www.w3.org/2000/svg">
<path d="M79.1682 1.14868V48.7715H69.4638V1.14868H79.1682Z" fill="white"/>
<path d="M178.751 14.8526L179.158 22.0147H173.542V22.7553H173.515V38.261C173.515 39.1911 173.628 39.9042 173.856 40.4003C174.083 40.8964 174.455 41.2477 174.972 41.4544C175.489 41.6405 176.15 41.7335 176.956 41.7335C177.535 41.7335 178.031 41.7128 178.444 41.6715C178.858 41.6301 179.24 41.5785 179.592 41.5165V48.5235C178.765 48.7922 177.886 48.9989 176.956 49.1435C176.026 49.3089 175.013 49.3916 173.918 49.3916C171.83 49.3916 170.022 49.0505 168.492 48.3684C166.983 47.6863 165.826 46.6115 165.02 45.144C164.213 43.6558 163.81 41.7231 163.81 39.3461V22.0147H159.253L158.846 14.8526C160.151 14.8526 161.878 14.873 163.81 14.8962V6.9155H173.515V14.8182H173.542V14.9594C175.451 14.9497 177.246 14.9188 178.751 14.8526Z" fill="white"/>
<path d="M116.467 24.9291L111.32 15.2247H101.088L110.204 31.595L100.623 48.7715H110.886L116.498 38.416L122.14 48.7715H132.372L122.792 31.595L131.938 15.2247H121.768L116.467 24.9291Z" fill="white"/>
<path fill-rule="evenodd" clip-rule="evenodd" d="M50.3719 49.1642C47.6435 49.1642 45.2045 48.7405 43.0548 47.893C40.9052 47.0249 39.0863 45.8364 37.5981 44.3275C36.1305 42.8186 35.004 41.0824 34.2186 39.1188C33.4538 37.1552 33.0714 35.0779 33.0714 32.8869V31.7087C33.0714 29.249 33.4125 26.9754 34.0946 24.8877C34.7767 22.7794 35.7895 20.9398 37.133 19.3689C38.4765 17.7981 40.1611 16.5785 42.1867 15.7104C44.2123 14.8216 46.5687 14.3772 49.2557 14.3772C51.6327 14.3772 53.7617 14.7596 55.6426 15.5244C57.5236 16.2892 59.1151 17.3847 60.4173 18.8109C61.7402 20.2371 62.7427 21.963 63.4248 23.9886C64.1275 26.0142 64.4789 28.2879 64.4789 30.8096V35.0572H43.7406C43.8187 35.4768 43.9208 35.8799 44.047 36.2664C44.3984 37.2792 44.8944 38.1473 45.5352 38.8707C46.1966 39.5735 46.9821 40.1212 47.8915 40.514C48.8217 40.9067 49.8758 41.1031 51.054 41.1031C52.4802 41.1031 53.8857 40.8344 55.2706 40.2969C56.6555 39.7595 57.844 38.8707 58.8361 37.6306L63.5798 43.2734C62.8977 44.2448 61.9262 45.1853 60.6654 46.0948C59.4252 47.0042 57.937 47.7483 56.2007 48.3271C54.4645 48.8852 52.5215 49.1642 50.3719 49.1642ZM43.7513 28.5153H54.2785V27.7091C54.2991 26.593 54.1028 25.6422 53.6894 24.8567C53.2966 24.0713 52.7179 23.4719 51.9531 23.0585C51.1883 22.6451 50.2582 22.4384 49.1627 22.4384C48.0259 22.4384 47.0854 22.6864 46.3413 23.1825C45.6179 23.6786 45.0495 24.3607 44.6361 25.2288C44.2434 26.0762 43.9643 27.058 43.799 28.1742C43.7822 28.2873 43.7663 28.4009 43.7513 28.5153Z" fill="white"/>
<path d="M148.105 26.3208C147.713 26.6979 147.393 27.1463 147.144 27.666V48.9851H136.695V15.4383H146.462L146.815 19.7454C146.94 19.5119 147.071 19.2854 147.206 19.0658C148.032 17.7016 149.035 16.6578 150.213 15.9343C151.391 15.1902 152.714 14.8182 154.182 14.8182C154.698 14.8182 155.205 14.8492 155.701 14.9112C156.218 14.9732 156.672 15.0662 157.065 15.1902L156.879 24.8946C156.466 24.8533 155.908 24.8016 155.205 24.7396C154.502 24.6776 153.913 24.6466 153.438 24.6466C152.218 24.6466 151.164 24.7913 150.275 25.0806C149.407 25.3494 148.684 25.7627 148.105 26.3208Z" fill="white"/>
<path d="M96.3446 15.2247V48.7715H86.6402V15.2247H96.3446Z" fill="white"/>
<path d="M194.901 22.3144V14.8182H181.231V22.3144H194.901Z" fill="white"/>
<path d="M100.096 3.79437V11.2906H86.4267V3.79437H100.096Z" fill="white"/>
<path d="M10.8826 12.1966V22.5831H28.4311V30.9543H10.8826V48.9368H0V3.79437H30.1983V12.1966H10.8826Z" fill="white"/>
<path d="M212.553 37.1955L214.808 35.6095L213.211 33.339L210.956 34.925L212.553 37.1955Z" fill="white"/>
<path d="M211.895 41.0519L214.15 39.466L212.553 37.1955L210.299 38.7814L211.895 41.0519Z" fill="white"/>
<path d="M206.166 28.1134L208.42 26.5275L210.017 28.798L207.762 30.3839L206.166 28.1134Z" fill="white"/>
<path d="M202.314 27.4289L204.569 25.8429L206.166 28.1134L203.911 29.6994L202.314 27.4289Z" fill="white"/>
<path d="M200.059 29.0148L202.314 27.4289L199.12 22.8878L196.865 24.4738L200.059 29.0148Z" fill="white"/>
<path d="M197.523 20.6173L199.12 22.8878L208.139 16.5441L206.542 14.2735L197.523 20.6173Z" fill="white"/>
<path d="M208.139 16.5441L209.736 18.8146L214.246 15.6427L212.649 13.3722L208.139 16.5441Z" fill="white"/>
<path d="M214.246 15.6427L215.843 17.9132L220.353 14.7413L218.756 12.4708L214.246 15.6427Z" fill="white"/>
<path d="M220.353 14.7413L221.95 17.0118L226.459 13.8399L224.862 11.5694L220.353 14.7413Z" fill="white"/>
<path d="M226.459 13.8399L228.056 16.1104L232.566 12.9385L230.969 10.668L226.459 13.8399Z" fill="white"/>
<path d="M235.76 17.4795L238.015 15.8936L234.821 11.3526L232.566 12.9385L235.76 17.4795Z" fill="white"/>
<path d="M231.25 20.6514L232.847 22.9219L237.357 19.7501L235.76 17.4795L231.25 20.6514Z" fill="white"/>
<path d="M228.337 26.0938L229.934 28.3644L234.444 25.1925L232.847 22.9219L228.337 26.0938Z" fill="white"/>
<path d="M225.425 31.5363L227.022 33.8068L231.531 30.6349L229.934 28.3644L225.425 31.5363Z" fill="white"/>
<path d="M222.512 36.9787L224.109 39.2492L228.619 36.0773L227.022 33.8068L222.512 36.9787Z" fill="white"/>
<path d="M215.089 45.593L216.686 47.8635L225.706 41.5197L224.109 39.2492L215.089 45.593Z" fill="white"/>
<path d="M211.895 41.0519L209.641 42.6379L212.835 47.1789L215.089 45.593L211.895 41.0519Z" fill="white"/>
<path d="M213.211 33.339L215.466 31.7531L212.272 27.2121L210.017 28.798L213.211 33.339Z" fill="white"/>
<path d="M215.466 31.7531L213.211 33.339L214.808 35.6095L212.553 37.1955L214.15 39.466L211.895 41.0519L215.089 45.593L224.109 39.2492L222.512 36.9787L227.022 33.8068L225.425 31.5363L229.934 28.3644L228.337 26.0938L232.847 22.9219L231.25 20.6514L235.76 17.4795L232.566 12.9385L228.056 16.1104L226.459 13.8399L221.95 17.0118L220.353 14.7413L215.843 17.9132L214.246 15.6427L209.736 18.8146L208.139 16.5441L199.12 22.8878L202.314 27.4289L204.569 25.8429L206.166 28.1134L208.42 26.5275L210.017 28.798L212.272 27.2121L215.466 31.7531Z" fill="white"/>
</svg>
